# xmcd
# Track frame offsets:
# 150
# 15252
# 30236
# 44806
# 57408
# 73361
# 87372
# 103884
# 120225
# 137059
# 150536
#
# Disc length: 2202 seconds
# Revision: 0
# Processed by: cddbd v1.5.1PL0 Copyright (c) Steve Scherf et al.
# Submitted via: VisiTrax 2.9.10.228 - For more info visit www.synapsa.com
#
DISCID=8f08980b
DTITLE=John Evans Bank - Circling The Drain
DYEAR=2004
DGENRE=
TTITLE0=Quicksand
TTITLE1=House of Cards
TTITLE2=Take Me Away
TTITLE3=Wishing Well
TTITLE4=Truly Untrue
TTITLE5=No More Happy Endings
TTITLE6=Endlessly Blue
TTITLE7=Slither
TTITLE8=Eye Candy
TTITLE9=Four Piece Band
TTITLE10=Swattin' Flies
EXTD=
EXTT0=
EXTT1=
EXTT2=
EXTT3=
EXTT4=
EXTT5=
EXTT6=
EXTT7=
EXTT8=
EXTT9=
EXTT10=
PLAYORDER=
